<?xml version="1.0" encoding="UTF-8"?>
<!--
  - Copyright © 2024 Twilio.
  -
  - Licensed under the Apache License, Version 2.0 (the "License");
  - you may not use this file except in compliance with the License.
  - You may obtain a copy of the License at
  -
  -    http://www.apache.org/licenses/LICENSE-2.0
  -
  - Unless required by applicable law or agreed to in writing, software
  - distributed under the License is distributed on an "AS IS" BASIS,
  - WITHOUT WARRANTIES OR CONDITIONS OF ANY KIND, either express or implied.
  - See the License for the specific language governing permissions and
  - limitations under the License.
  -->

<svg width="41px" height="41px" viewBox="0 0 41 41" version="1.1" xmlns="http://www.w3.org/2000/svg" xmlns:xlink="http://www.w3.org/1999/xlink">
    <title>Group</title>
    <g id="Page-1" stroke="none" stroke-width="1" fill="none" fill-rule="evenodd">
        <g id="Group">
            <g id="Group-51446" fill="#EBF4FF" fill-rule="nonzero">
                <g id="Group-51445">
                    <circle id="Oval" cx="20.5" cy="20.5" r="20.5"></circle>
                </g>
            </g>
            <g id="copy-(1)" transform="translate(11.000000, 11.000000)" fill="#001489">
                <path d="M14.84582,1.33348 C14.76982,0.58448 14.13722,0 13.36812,0 L1.48535,0 L1.33348,0.00766 C0.58448,0.08373 0,0.71628 0,1.48535 L0,13.36815 L0.00766,13.52005 C0.08373,14.26905 0.71628,14.85355 1.48535,14.85355 L3.42773,14.85355 L3.42773,16.56735 C3.42773,17.51395 4.19502,18.28125 5.14162,18.28125 L16.56742,18.28125 C17.51392,18.28125 18.28122,17.51395 18.28122,16.56735 L18.28122,5.14155 C18.28122,4.19505 17.51392,3.42773 16.56742,3.42773 L14.85352,3.42773 L14.85352,1.48535 L14.84582,1.33348 Z M13.71092,3.42773 L13.71092,1.48535 C13.71092,1.32308 13.59822,1.18715 13.44672,1.15163 L13.36812,1.14257 L1.48535,1.14257 C1.32308,1.14257 1.18715,1.25532 1.15163,1.40675 L1.14257,1.48535 L1.14257,13.36815 C1.14257,13.53045 1.25532,13.66635 1.40675,13.70185 L1.48535,13.71095 L3.42773,13.71095 L3.42773,5.14155 C3.42773,4.19505 4.19502,3.42773 5.14162,3.42773 L13.71092,3.42773 Z M5.14162,4.57035 L16.56742,4.57035 C16.88292,4.57035 17.13862,4.82605 17.13862,5.14155 L17.13862,16.56735 C17.13862,16.88285 16.88292,17.13865 16.56742,17.13865 L5.14162,17.13865 C4.82612,17.13865 4.57032,16.88285 4.57032,16.56735 L4.57032,5.14155 C4.57032,4.82605 4.82612,4.57035 5.14162,4.57035 Z" id="Shape"></path>
            </g>
        </g>
    </g>
</svg>
