<svg width="80" height="81" viewBox="0 0 80 81" fill="none" xmlns="http://www.w3.org/2000/svg">
<circle cx="40" cy="40.8389" r="40" fill="#0878FF"/>
<path d="M39.2944 19.6041C29.4812 19.372 21.4243 27.2869 21.4243 37.0483V41.0697C21.4243 53.2948 31.3344 63.2049 43.559 63.2049H51.3262C51.5107 63.2049 51.5892 62.9646 51.4366 62.8609C50.5824 62.2819 49.813 61.5915 49.1459 60.8148C47.3895 58.7702 46.344 56.1253 46.344 53.3239C46.344 48.409 49.4424 44.1289 53.9323 42.5155C54.5244 42.3028 55.1378 42.1317 55.7744 42.0164L56.3224 41.9171V37.3753C56.3224 27.847 48.8198 19.8294 39.2944 19.6041ZM51.8591 29.4367C52.8616 30.6019 53.5137 32.0734 53.6343 33.6771C53.646 33.8302 53.644 33.9804 53.6465 34.1311C53.7051 37.9388 50.8988 41.171 47.2398 41.6652H42.777C41.9824 41.6652 41.2203 41.9806 40.6588 42.5426L38.8734 44.328L37.0884 42.5431C36.5264 41.9811 35.7643 41.6656 34.9697 41.6656H31.0902V41.6443C27.1502 41.4253 24.0377 38.1375 24.1012 34.1277C24.1027 34.0303 24.0969 33.9348 24.1022 33.8365C24.1918 32.1829 24.8488 30.6601 25.8755 29.4585C27.1342 27.9841 28.9502 26.9938 30.9769 26.8528C31.1547 26.8402 31.331 26.8344 31.5064 26.8344C34.8883 26.8349 37.7396 29.0995 38.6301 32.1945C38.7018 32.444 39.0449 32.444 39.1166 32.1945C40.0076 29.099 42.8584 26.8344 46.2403 26.8344C46.4166 26.8344 46.5949 26.8407 46.7737 26.8533C48.7888 26.9943 50.6004 27.9735 51.8591 29.4367Z" fill="white"/>
<path d="M55.9668 43.9258C51.5733 44.793 48.2559 48.671 48.2559 53.3233C48.2559 57.1945 50.5534 60.5303 53.8572 62.04C54.5108 62.339 55.2231 62.4906 55.9421 62.4906H56.115V44.0484C56.115 43.9708 56.0429 43.9112 55.9668 43.9258Z" fill="white"/>
<path d="M31.6231 36.8104C33.0373 36.8104 34.1837 35.664 34.1837 34.2498C34.1837 32.8356 33.0373 31.6892 31.6231 31.6892C30.2089 31.6892 29.0625 32.8356 29.0625 34.2498C29.0625 35.664 30.2089 36.8104 31.6231 36.8104Z" fill="white"/>
<path d="M46.1241 36.8104C47.5383 36.8104 48.6847 35.664 48.6847 34.2498C48.6847 32.8356 47.5383 31.6892 46.1241 31.6892C44.7099 31.6892 43.5635 32.8356 43.5635 34.2498C43.5635 35.664 44.7099 36.8104 46.1241 36.8104Z" fill="white"/>
</svg>
