<?xml version="1.0" encoding="UTF-8"?>
<!--
  - Copyright © 2024 Twilio Inc.
  -
  - Licensed under the Apache License, Version 2.0 (the "License");
  - you may not use this file except in compliance with the License.
  - You may obtain a copy of the License at
  -
  -    http://www.apache.org/licenses/LICENSE-2.0
  -
  - Unless required by applicable law or agreed to in writing, software
  - distributed under the License is distributed on an "AS IS" BASIS,
  - WITHOUT WARRANTIES OR CONDITIONS OF ANY KIND, either express or implied.
  - See the License for the specific language governing permissions and
  - limitations under the License.
  -->

<svg width="41px" height="41px" viewBox="0 0 41 41" version="1.1" xmlns="http://www.w3.org/2000/svg" xmlns:xlink="http://www.w3.org/1999/xlink">
    <title>Group 3</title>
    <g id="Page-1" stroke="none" stroke-width="1" fill="none" fill-rule="evenodd">
        <g id="Group-3">
            <g id="Group-51445" fill="#EBF4FF" fill-rule="nonzero">
                <g id="Oval-2">
                    <circle id="Oval" cx="20.5" cy="20.5" r="20.5"></circle>
                </g>
            </g>
            <g id="CreditCard" transform="translate(11.000000, 14.000000)" fill="#606B85">
                <path d="M10.5187,8.6625 C10.177,8.6625 9.9,8.9395 9.9,9.2813 C9.9,9.623 10.177,9.9 10.5187,9.9 L15.4687,9.9 C15.8105,9.9 16.0875,9.623 16.0875,9.2813 C16.0875,8.9395 15.8105,8.6625 15.4687,8.6625 L10.5187,8.6625 Z" id="Path" fill-rule="nonzero"></path>
                <path d="M0,1.85625 C0,0.83107 0.83107,0 1.85625,0 L17.9437,0 C18.9689,0 19.8,0.83107 19.8,1.85625 L19.8,11.7563 C19.8,12.7814 18.9689,13.6125 17.9437,13.6125 L1.85625,13.6125 C0.83107,13.6125 0,12.7814 0,11.7563 L0,1.85625 Z M18.5625,1.85625 L18.5625,3.7125 L1.2375,3.7125 L1.2375,1.85625 C1.2375,1.51452 1.51452,1.2375 1.85625,1.2375 L17.9437,1.2375 C18.2855,1.2375 18.5625,1.51452 18.5625,1.85625 Z M18.5625,4.95 L1.2375,4.95 L1.2375,11.7563 C1.2375,12.098 1.51452,12.375 1.85625,12.375 L17.9437,12.375 C18.2855,12.375 18.5625,12.098 18.5625,11.7563 L18.5625,4.95 Z" id="Shape"></path>
            </g>
        </g>
    </g>
</svg>
