<!--
  - Copyright © 2024 Twilio.
  -
  - Licensed under the Apache License, Version 2.0 (the "License");
  - you may not use this file except in compliance with the License.
  - You may obtain a copy of the License at
  -
  -    http://www.apache.org/licenses/LICENSE-2.0
  -
  - Unless required by applicable law or agreed to in writing, software
  - distributed under the License is distributed on an "AS IS" BASIS,
  - WITHOUT WARRANTIES OR CONDITIONS OF ANY KIND, either express or implied.
  - See the License for the specific language governing permissions and
  - limitations under the License.
  -->

<svg width="25" height="25" viewBox="0 0 25 25" fill="none" xmlns="http://www.w3.org/2000/svg">
<path d="M12.0524 9.37154C12.0524 10.7315 10.929 11.8515 9.5648 11.8515C8.20063 11.8515 7.07719 10.7315 7.07719 9.37154C7.07719 8.01154 8.20063 6.89154 9.5648 6.89154C10.929 6.89154 12.0524 8.01154 12.0524 9.37154ZM9.5648 12.8115C8.20063 12.8115 7.07719 13.9315 7.07719 15.2915C7.07719 16.6515 8.20063 17.7715 9.5648 17.7715C10.929 17.7715 12.0524 16.6515 12.0524 15.2915C12.0524 13.9315 10.929 12.8115 9.5648 12.8115ZM24.5707 12.3315C24.5707 18.9715 19.1942 24.3315 12.5339 24.3315C5.87351 24.3315 0.49707 18.9715 0.49707 12.3315C0.49707 5.69154 5.87351 0.331543 12.5339 0.331543C19.1942 0.331543 24.5707 5.69154 24.5707 12.3315ZM21.3609 12.3315C21.3609 7.45154 17.4289 3.53154 12.5339 3.53154C7.63891 3.53154 3.70689 7.45154 3.70689 12.3315C3.70689 17.2115 7.63891 21.1315 12.5339 21.1315C17.4289 21.1315 21.3609 17.2115 21.3609 12.3315ZM15.503 12.8115C14.1388 12.8115 13.0154 13.9315 13.0154 15.2915C13.0154 16.6515 14.1388 17.7715 15.503 17.7715C16.8671 17.7715 17.9906 16.6515 17.9906 15.2915C17.9906 13.9315 16.8671 12.8115 15.503 12.8115ZM15.503 6.89154C14.1388 6.89154 13.0154 8.01154 13.0154 9.37154C13.0154 10.7315 14.1388 11.8515 15.503 11.8515C16.8671 11.8515 17.9906 10.7315 17.9906 9.37154C17.9906 8.01154 16.8671 6.89154 15.503 6.89154Z" fill="#F22F46"/>
</svg>
