<svg width="21" height="21" viewBox="0 0 21 21" fill="none" xmlns="http://www.w3.org/2000/svg">
<path fill-rule="evenodd" clip-rule="evenodd" d="M8.85609 2.82959H3.59558C2.99051 2.82959 2.5 3.3201 2.5 3.92517V9.18568C2.5 9.79075 2.99051 10.2813 3.59558 10.2813H8.85609C9.46116 10.2813 9.95167 9.79075 9.95167 9.18568V3.92517C9.95167 3.3201 9.46116 2.82959 8.85609 2.82959ZM3.59558 3.70563H8.85609C8.97734 3.70563 9.07564 3.80392 9.07564 3.92517V9.18568C9.07564 9.30693 8.97734 9.40523 8.85609 9.40523H3.59558C3.47433 9.40523 3.37604 9.30693 3.37604 9.18568V3.92517C3.37604 3.80392 3.47433 3.70563 3.59558 3.70563ZM17.4044 2.82959H12.1439C11.5388 2.82959 11.0483 3.3201 11.0483 3.92517V9.18568C11.0483 9.79075 11.5388 10.2813 12.1439 10.2813H17.4044C18.0095 10.2813 18.5 9.79075 18.5 9.18568V3.92517C18.5 3.3201 18.0095 2.82959 17.4044 2.82959ZM12.1439 3.70563H17.4044C17.5257 3.70563 17.624 3.80392 17.624 3.92517V9.18568C17.624 9.30693 17.5257 9.40523 17.4044 9.40523H12.1439C12.0227 9.40523 11.9244 9.30693 11.9244 9.18568V3.92517C11.9244 3.80392 12.0227 3.70563 12.1439 3.70563ZM3.59558 11.3779H8.85609C9.46116 11.3779 9.95167 11.8684 9.95167 12.4735V17.734C9.95167 18.3391 9.46116 18.8296 8.85609 18.8296H3.59558C2.99051 18.8296 2.5 18.3391 2.5 17.734V12.4735C2.5 11.8684 2.99051 11.3779 3.59558 11.3779ZM8.85609 12.254H3.59558C3.47433 12.254 3.37604 12.3522 3.37604 12.4735V17.734C3.37604 17.8553 3.47433 17.9536 3.59558 17.9536H8.85609C8.97734 17.9536 9.07564 17.8553 9.07564 17.734V12.4735C9.07564 12.3522 8.97734 12.254 8.85609 12.254ZM17.4044 11.3779H12.1439C11.5388 11.3779 11.0483 11.8684 11.0483 12.4735V17.734C11.0483 18.3391 11.5388 18.8296 12.1439 18.8296H17.4044C18.0095 18.8296 18.5 18.3391 18.5 17.734V12.4735C18.5 11.8684 18.0095 11.3779 17.4044 11.3779ZM12.1439 12.254H17.4044C17.5257 12.254 17.624 12.3522 17.624 12.4735V17.734C17.624 17.8553 17.5257 17.9536 17.4044 17.9536H12.1439C12.0227 17.9536 11.9244 17.8553 11.9244 17.734V12.4735C11.9244 12.3522 12.0227 12.254 12.1439 12.254Z" fill="#606B85"/>
</svg>
