<svg width="44" height="44" viewBox="0 0 44 44" fill="none" xmlns="http://www.w3.org/2000/svg">
<path fill-rule="evenodd" clip-rule="evenodd" d="M43.8297 21.9149C43.8297 34.0181 34.0181 43.8297 21.9149 43.8297C9.81161 43.8297 0 34.0181 0 21.9149C0 9.81161 9.81161 0 21.9149 0C34.0181 0 43.8297 9.81161 43.8297 21.9149ZM21.6098 10.1658C15.9505 10.032 11.3042 14.5965 11.3042 20.2258V22.545C11.3042 29.5952 17.0193 35.3103 24.0692 35.3103H28.5485C28.6549 35.3103 28.7002 35.1717 28.6122 35.1119C28.1196 34.778 27.6759 34.3799 27.2911 33.932C26.2783 32.7528 25.6753 31.2275 25.6753 29.6119C25.6753 26.7776 27.4621 24.3092 30.0515 23.3788C30.3929 23.2561 30.7466 23.1575 31.1138 23.091L31.4298 23.0337V20.4145C31.4298 14.9195 27.1031 10.2957 21.6098 10.1658ZM28.8558 15.8362C29.434 16.5082 29.81 17.3568 29.8796 18.2817C29.8847 18.3485 29.8853 18.4143 29.8859 18.4801L29.8866 18.5435C29.9204 20.7394 28.302 22.6034 26.1919 22.8884H23.6182C23.16 22.8884 22.7205 23.0703 22.3966 23.3944L21.367 24.424L20.3376 23.3947C20.0135 23.0706 19.574 22.8887 19.1157 22.8887H16.8785V22.8764C14.6063 22.7501 12.8113 20.854 12.8479 18.5415C12.8482 18.5194 12.8479 18.4974 12.8476 18.4754C12.8471 18.4417 12.8466 18.4079 12.8485 18.3736C12.9002 17.42 13.2791 16.5418 13.8711 15.8488C14.5971 14.9986 15.6443 14.4274 16.8131 14.3461C16.9156 14.3389 17.0173 14.3355 17.1185 14.3355C19.0688 14.3358 20.7132 15.6418 21.2267 17.4267C21.2681 17.5706 21.4659 17.5706 21.5072 17.4267C22.0211 15.6415 23.6652 14.3355 25.6155 14.3355C25.7172 14.3355 25.82 14.3391 25.9231 14.3464C27.0852 14.4277 28.1299 14.9924 28.8558 15.8362ZM26.7778 29.6117C26.7778 26.9287 28.691 24.6923 31.2247 24.1921C31.2686 24.1838 31.3102 24.2181 31.3102 24.2628V34.8985H31.2105C30.7958 34.8985 30.3851 34.811 30.0082 34.6386C28.1028 33.7679 26.7778 31.8442 26.7778 29.6117ZM17.1858 20.0887C18.0014 20.0887 18.6625 19.4275 18.6625 18.6119C18.6625 17.7964 18.0014 17.1352 17.1858 17.1352C16.3703 17.1352 15.7091 17.7964 15.7091 18.6119C15.7091 19.4275 16.3703 20.0887 17.1858 20.0887ZM27.0251 18.6119C27.0251 19.4275 26.364 20.0887 25.5484 20.0887C24.7329 20.0887 24.0717 19.4275 24.0717 18.6119C24.0717 17.7964 24.7329 17.1352 25.5484 17.1352C26.364 17.1352 27.0251 17.7964 27.0251 18.6119Z" fill="white"/>
</svg>
